<svg xmlns="http://www.w3.org/2000/svg" viewBox="0 0 128.54 107.91"><defs><style>.cls-1{fill:#d8742c;}</style></defs><title>Recurso 2</title><g id="Capa_2" data-name="Capa 2"><g id="Capa_1-2" data-name="Capa 1"><path class="cls-1" d="M93.62,67.2l0,0,.1.22a6.08,6.08,0,0,0,11.08-5L99.9,51.55a3,3,0,0,1,5.55-2.48A6.77,6.77,0,0,0,109,52.52a5.8,5.8,0,0,0,4.53-.42,6.07,6.07,0,0,0,3-8l-5.16-11.41a6.08,6.08,0,0,0-11.08,5l.15.32a3,3,0,0,1-5.53,2.53h0a6.08,6.08,0,1,0-11.08,5l4.76,10.53a3.06,3.06,0,0,1-5.39,2.85h0l-2.56-5.66-5-11.08L58.17,3.58a6.08,6.08,0,1,0-11.08,5l5,11h0a3,3,0,0,1-5.57,2.44l0-.06A6.08,6.08,0,1,0,35.4,27l5,11a3,3,0,0,1-5.52,2.55l0,0,0-.09a6.14,6.14,0,0,0-3.4-3.18,6.09,6.09,0,0,0-7.69,8.2l4.93,10.89a3,3,0,0,1-5.56,2.47,6.76,6.76,0,0,0-3.51-3.44,5.82,5.82,0,0,0-4.54.41,6.08,6.08,0,0,0-3,8l5.16,11.4a6.08,6.08,0,0,0,11.08-5l-.15-.32a3,3,0,0,1,5.53-2.54h0a6.08,6.08,0,1,0,11.08-5L39.85,51.63a3,3,0,1,1,5.54-2.51l2.52,5.56,5,11.08,17.45,38.58a6.08,6.08,0,1,0,11.08-5l-5-11a3,3,0,0,1,1.53-4,3.09,3.09,0,0,1,4,1.57,6.08,6.08,0,1,0,11.08-5L87.9,69.29h0a3,3,0,0,1,1.66-3.66A3.15,3.15,0,0,1,93.62,67.2ZM75.5,78.78a3,3,0,0,1-4-1.4l0-.06L64,60.75,59,49.67,51.52,33.15h0A3,3,0,0,1,57,30.6l7.5,16.56,5,11.08L77,74.76A3,3,0,0,1,75.5,78.78Z"/><path class="cls-1" d="M8.59,85.82a6.08,6.08,0,1,1,3-8A6.09,6.09,0,0,1,8.59,85.82Z"/><path class="cls-1" d="M125,33.18a6.08,6.08,0,1,1,3-8A6.07,6.07,0,0,1,125,33.18Z"/></g></g></svg>