<svg xmlns="http://www.w3.org/2000/svg" viewBox="0 0 260.13 107.91"><defs><style>.cls-1{fill:#d8742c;}.cls-2{fill:#5f5f62;}</style></defs><title>Recurso 1</title><g id="Capa_2" data-name="Capa 2"><g id="Capa_1-2" data-name="Capa 1"><path class="cls-1" d="M203.21,70a2.26,2.26,0,0,1-2,1.1H169.91a2.41,2.41,0,1,1,0-4.82h27.61L176,16.91,152.89,69.63a2.29,2.29,0,0,1-2.23,1.45,2.39,2.39,0,0,1-1-.22,2.23,2.23,0,0,1-1.27-1.32,2.33,2.33,0,0,1,0-1.83L173.72,10A2.28,2.28,0,0,1,176,8.51,2.2,2.2,0,0,1,178.14,10l25.29,57.76A2.22,2.22,0,0,1,203.21,70Z"/><path class="cls-1" d="M191.22,11.87a2.33,2.33,0,0,1,0-1.83,2.36,2.36,0,0,1,1.27-1.36,2.24,2.24,0,0,1,1.83,0A2.39,2.39,0,0,1,195.64,10L218.7,62.67,241.76,10a2.44,2.44,0,0,1,3.15-1.27A2.56,2.56,0,0,1,246.22,10a2.37,2.37,0,0,1,0,1.83L220.89,69.63a2.21,2.21,0,0,1-2.19,1.45,2.28,2.28,0,0,1-2.23-1.45Z"/><path class="cls-1" d="M257.73,71.08a2.39,2.39,0,0,1-2.41-2.41V10.91a2.41,2.41,0,1,1,4.81,0V68.67a2.37,2.37,0,0,1-2.4,2.41Z"/><path class="cls-2" d="M158,98.38c-.78.08-2.79.1-4,.1-2.87,0-4.37-1.08-4.37-3.81v-7.9c0-2.72,1.5-3.81,4.37-3.81,1.21,0,3.14,0,4,.12a.3.3,0,0,1,.21.29v1a.23.23,0,0,1-.23.25h-4c-2.17,0-2.52.57-2.52,2.13v2.85h6.29a.42.42,0,0,1,.42.41v.78a.41.41,0,0,1-.42.41H151.5v3.45c0,1.56.35,2.13,2.52,2.13h4a.23.23,0,0,1,.23.25v1A.29.29,0,0,1,158,98.38Z"/><path class="cls-2" d="M170.19,98.34h-1a.41.41,0,0,1-.41-.41V91.18c0-2.07-.7-2.7-2.26-2.7a6.34,6.34,0,0,0-2.76.8v8.65a.43.43,0,0,1-.41.41h-1a.41.41,0,0,1-.39-.41V87.47a.4.4,0,0,1,.39-.41h1a.4.4,0,0,1,.39.41v.39a6.11,6.11,0,0,1,3.26-.94c2.46,0,3.57,1.53,3.57,4.26v6.75A.41.41,0,0,1,170.19,98.34Z"/><path class="cls-2" d="M182.92,93.27h-6.87v.29c0,2.44,1,3.34,2.86,3.34a29,29,0,0,0,3.65-.22h.1A.29.29,0,0,1,183,97v.69c0,.27-.09.41-.41.48a19.08,19.08,0,0,1-3.67.34c-2.36,0-4.66-1.1-4.66-4.92V91.72c0-2.94,1.62-4.8,4.55-4.8s4.51,1.88,4.51,4.8v1.1C183.31,93.09,183.17,93.27,182.92,93.27Zm-1.43-1.55c0-2.32-.88-3.22-2.69-3.22s-2.75,1-2.75,3.22v.18h5.44Z"/><path class="cls-2" d="M191.64,88.48a5.23,5.23,0,0,0-2.83.86v8.59a.42.42,0,0,1-.41.41h-1a.4.4,0,0,1-.39-.41V87.47a.39.39,0,0,1,.39-.41h1a.39.39,0,0,1,.39.41v.43a4.89,4.89,0,0,1,2.89-1c.29,0,.43.12.43.37v.84C192.07,88.35,191.93,88.48,191.64,88.48Z"/><path class="cls-2" d="M204.22,88.43l-.74.15a2.86,2.86,0,0,1,.7,2.11v.16c0,2.26-1.4,3.51-4.56,3.51a5.8,5.8,0,0,1-2.37-.41.76.76,0,0,0-.52.7c0,.35.17.53.64.65l3,.78c2,.52,3.94,1.09,3.94,3v.16c0,2-1.31,3.18-4.67,3.18S195,101.19,195,99.18V99a3.32,3.32,0,0,1,1.29-2.61l-.14-.06a1.69,1.69,0,0,1-1-1.6v0a1.71,1.71,0,0,1,.84-1.48,3,3,0,0,1-.94-2.38v-.16c0-1.83,1-3.63,4.55-3.63h4.5a.48.48,0,0,1,.47.45V88C204.59,88.31,204.44,88.39,204.22,88.43ZM202.56,99.1c0-.8-.66-1.13-2.51-1.6l-2.31-.6a2.46,2.46,0,0,0-1,2.1v.18c0,1.15.68,1.87,3,1.87s2.87-.66,2.87-1.79Zm-.17-8.41c0-1.23-.55-2.19-2.77-2.19s-2.76,1-2.76,2.19v.16c0,.91.41,2.1,2.76,2.1s2.77-.87,2.77-2.1Z"/><path class="cls-2" d="M216.69,87.55l-3.38,11.82c-.64,2.21-1.4,3-3.76,3a8.74,8.74,0,0,1-1.72-.18c-.25-.07-.43-.13-.43-.33v-.76c0-.23.16-.33.39-.33h.06c.45,0,1.38.12,1.83.12,1.17,0,1.68-.3,2-1.74l.2-.84h-.29c-.61,0-1.14-.14-1.51-1.42l-2.73-9.37a.34.34,0,0,1,0-.14.33.33,0,0,1,.37-.35h1.13a.4.4,0,0,1,.34.33l2.42,8.9c.11.41.25.45.39.45h.33l2.5-9.37a.43.43,0,0,1,.39-.31h1.15a.32.32,0,0,1,.33.35A.34.34,0,0,1,216.69,87.55Z"/><path class="cls-2" d="M235,98.3a34.89,34.89,0,0,1-4,.18c-2.19,0-4.37-.43-4.37-3.81V83.51a.42.42,0,0,1,.41-.41h1a.42.42,0,0,1,.41.41V94.67c0,1.56.35,2.13,2.52,2.13h4a.23.23,0,0,1,.23.25v1A.29.29,0,0,1,235,98.3Z"/><path class="cls-2" d="M245.66,98.34h-.95a.41.41,0,0,1-.41-.41v-.45a6.26,6.26,0,0,1-3.15,1c-1.75,0-3.35-.75-3.35-3.32v-.25c0-2.21,1.29-3.32,4.94-3.32h1.52v-.82c0-1.72-.59-2.32-2.19-2.32a30.08,30.08,0,0,0-3.14.17h-.1c-.19,0-.37-.06-.37-.33v-.72c0-.22.14-.35.43-.39a18.06,18.06,0,0,1,3.18-.26c2.85,0,4,1.43,4,3.85v7.16A.41.41,0,0,1,245.66,98.34Zm-1.4-5.45h-1.52c-2.48,0-3.13.55-3.13,2v.25c0,1.48.69,1.87,1.88,1.87a5.65,5.65,0,0,0,2.77-.82Z"/><path class="cls-2" d="M254.29,98.48a20.33,20.33,0,0,1-3.77-.34c-.37-.07-.43-.19-.43-.48V83.31a.37.37,0,0,1,.37-.39h1a.38.38,0,0,1,.39.39v3.81a15,15,0,0,1,2.4-.2c3,0,4.48,1.8,4.48,5v1.48C258.77,96.49,257.37,98.48,254.29,98.48ZM257,91.94c0-2.19-.66-3.44-2.67-3.44a16.5,16.5,0,0,0-2.4.14v8.14c.7.06,1.71.12,2.4.12,2,0,2.67-1.25,2.67-3.48Z"/><path class="cls-1" d="M93.62,67.2l0,0,.1.22a6.08,6.08,0,0,0,11.08-5L99.9,51.55a3,3,0,0,1,5.55-2.48A6.77,6.77,0,0,0,109,52.52a5.8,5.8,0,0,0,4.53-.42,6.07,6.07,0,0,0,3-8l-5.16-11.41a6.08,6.08,0,0,0-11.08,5l.15.32a3,3,0,0,1-5.53,2.53h0a6.08,6.08,0,1,0-11.08,5l4.76,10.53a3.06,3.06,0,0,1-5.39,2.85h0l-2.56-5.66-5-11.08L58.17,3.58a6.08,6.08,0,1,0-11.08,5l5,11h0a3,3,0,0,1-5.57,2.44l0-.06A6.08,6.08,0,1,0,35.4,27l5,11a3,3,0,0,1-5.52,2.55l0,0,0-.09a6.14,6.14,0,0,0-3.4-3.18,6.09,6.09,0,0,0-7.69,8.2l4.93,10.89a3,3,0,0,1-5.56,2.47,6.76,6.76,0,0,0-3.51-3.44,5.82,5.82,0,0,0-4.54.41,6.08,6.08,0,0,0-3,8l5.16,11.4a6.08,6.08,0,0,0,11.08-5l-.15-.32a3,3,0,0,1,5.53-2.54h0a6.08,6.08,0,1,0,11.08-5L39.85,51.63a3,3,0,1,1,5.54-2.51l2.52,5.56,5,11.08,17.45,38.58a6.08,6.08,0,1,0,11.08-5l-5-11a3,3,0,0,1,1.53-4,3.09,3.09,0,0,1,4,1.57,6.08,6.08,0,1,0,11.08-5L87.9,69.29h0a3,3,0,0,1,1.66-3.66A3.15,3.15,0,0,1,93.62,67.2ZM75.5,78.78a3,3,0,0,1-4-1.4l0-.06L64,60.75,59,49.67,51.52,33.15h0A3,3,0,0,1,57,30.6l7.5,16.56,5,11.08L77,74.76A3,3,0,0,1,75.5,78.78Z"/><path class="cls-1" d="M8.59,85.82a6.08,6.08,0,1,1,3-8A6.09,6.09,0,0,1,8.59,85.82Z"/><path class="cls-1" d="M125,33.18a6.08,6.08,0,1,1,3-8A6.07,6.07,0,0,1,125,33.18Z"/></g></g></svg>